<svg width="123" height="36" viewBox="0 0 123 36" fill="none" xmlns="http://www.w3.org/2000/svg">
    <mask id="mask0" mask-type="alpha" maskUnits="userSpaceOnUse" x="46" y="9" width="15" height="18">
        <path fill-rule="evenodd" clip-rule="evenodd" d="M46.2507 9.72437H60.106V26.8102H46.2507V9.72437Z" fill="white"/>
    </mask>
    <g mask="url(#mask0)">
        <path fill-rule="evenodd" clip-rule="evenodd" d="M52.8553 18.2673C55.655 18.2673 56.8754 16.9033 56.8754 14.9171C56.8754 12.931 55.655 11.6387 52.8553 11.6387H48.4042V18.2673H52.8553ZM46.2504 9.72386H52.8312C57.2582 9.72386 59.0768 11.6623 59.0768 14.5577C59.0768 16.7833 58.2392 18.2908 56.0377 18.9847V19.2241C57.952 19.7266 58.7178 20.947 59.2683 23.3162L60.1057 26.8098H57.9043L57.1145 23.4596C56.6359 21.4256 55.9658 20.2531 52.9748 20.1813H48.404V26.8098H46.2504V9.72386Z" fill="black"/>
    </g>
    <path fill-rule="evenodd" clip-rule="evenodd" d="M70.266 19.6074C70.0508 17.2384 68.5431 15.8026 66.4372 15.8026C64.3315 15.8026 62.6565 17.2144 62.3932 19.6074H70.266ZM60.2394 20.6365C60.2394 16.4248 62.8956 14.1274 66.485 14.1274C70.0267 14.1274 72.4676 16.5683 72.4676 20.4688C72.4676 20.732 72.4436 20.9953 72.4196 21.2106H62.3213C62.5128 23.8907 64.1878 25.4702 66.485 25.4702C67.897 25.4702 69.1892 24.7524 69.7874 23.5796H71.8694C71.1753 25.853 69.0455 27.1454 66.485 27.1454C62.6324 27.1454 60.2394 24.513 60.2394 20.6365V20.6365Z" fill="black"/>
    <path fill-rule="evenodd" clip-rule="evenodd" d="M73.4856 20.062C73.4856 16.1136 75.3521 14.1275 78.6067 14.1275C80.7125 14.1275 82.1242 14.8693 82.8901 16.4965H83.1293C83.8712 14.917 85.2829 14.1275 87.341 14.1275C90.7629 14.1275 92.4619 16.0419 92.4619 19.8945V26.8103H90.3562V19.8945C90.3562 17.2383 89.3032 15.9221 87.1975 15.9221C85.1874 15.9221 84.0148 17.2623 84.0148 20.062V26.8103H81.9329V19.8945C81.9329 17.2383 80.88 15.9221 78.7502 15.9221C76.74 15.9221 75.5915 17.2623 75.5915 20.062V26.8103H73.4856V20.062Z" fill="black"/>
    <path fill-rule="evenodd" clip-rule="evenodd" d="M90.3562 20.062C90.3562 16.1136 92.2227 14.1275 95.4772 14.1275C97.5829 14.1275 98.9949 14.8693 99.7605 16.4965H99.9999C100.742 14.917 102.154 14.1275 104.211 14.1275C107.634 14.1275 109.333 16.0419 109.333 19.8945V26.8103H107.227V19.8945C107.227 17.2383 106.174 15.9221 104.068 15.9221C102.058 15.9221 100.885 17.2623 100.885 20.062V26.8103H98.8033V19.8945C98.8033 17.2383 97.7506 15.9221 95.6206 15.9221C93.6106 15.9221 92.4619 17.2623 92.4619 20.062V26.8103H90.3562V20.062Z" fill="black"/>
    <mask id="mask1" mask-type="alpha" maskUnits="userSpaceOnUse" x="109" y="14" width="14" height="18">
        <path fill-rule="evenodd" clip-rule="evenodd" d="M109.644 14.4625H122.303V31.3569H109.644V14.4625Z" fill="white"/>
    </mask>
    <g mask="url(#mask1)">
        <path fill-rule="evenodd" clip-rule="evenodd" d="M112.899 31.3569L114.837 26.8103L109.644 14.4625H111.941L115.89 24.1779H116.129L120.078 14.4625H122.303L115.172 31.3569H112.899Z" fill="black"/>
    </g>
    <path fill-rule="evenodd" clip-rule="evenodd" d="M26.4 36H9.6C4.32 36 0 31.68 0 26.4V9.6C0 4.32 4.32 0 9.6 0H26.4C31.68 0 36 4.32 36 9.6V26.4C36 31.68 31.68 36 26.4 36Z" fill="#3A55F9"/>
    <mask id="mask2" mask-type="alpha" maskUnits="userSpaceOnUse" x="0" y="0" width="36" height="36">
        <path fill-rule="evenodd" clip-rule="evenodd" d="M26.4 36H9.6C4.32 36 0 31.68 0 26.4V9.6C0 4.32 4.32 0 9.6 0H26.4C31.68 0 36 4.32 36 9.6V26.4C36 31.68 31.68 36 26.4 36Z" fill="white"/>
    </mask>
    <g mask="url(#mask2)">
        <path fill-rule="evenodd" clip-rule="evenodd" d="M31.2 18C31.2 14.4742 29.8269 11.159 27.3338 8.66616C24.8407 6.17304 21.5261 4.8 18 4.8C14.4739 4.8 11.1593 6.17304 8.66614 8.66616L9.44686 9.44688L10.3634 10.3632C12.4029 8.32344 15.1152 7.2 18 7.2C20.885 7.2 23.597 8.32344 25.6368 10.3632C27.6765 12.403 28.8 15.115 28.8 18C28.8 20.8848 27.6765 23.5968 25.6368 25.6368C23.5968 27.6766 20.8848 28.8 18 28.8C15.1152 28.8 12.4032 27.6766 10.3634 25.6368L10.3632 25.6366L8.66614 27.3338C11.1595 29.827 14.4741 31.2 18 31.2C19.9437 31.2 21.8225 30.7805 23.5358 29.9882L27.3338 36.5408C28.2048 36.4876 28.6958 35.7559 29.4902 35.4838L25.6116 28.7837C26.219 28.3529 26.7965 27.8712 27.3338 27.3338C29.8269 24.8405 31.2 21.5256 31.2 18" fill="#FEFFFF"/>
    </g>
    <path fill-rule="evenodd" clip-rule="evenodd" d="M18.0001 22.8C15.3534 22.8 13.2001 20.6467 13.2001 18C13.2001 15.3533 15.3534 13.2 18.0001 13.2C20.6468 13.2 22.8001 15.3533 22.8001 18C22.8001 20.6467 20.6468 22.8 18.0001 22.8M25.2 18C25.2 14.0299 21.9701 10.8 18 10.8C14.03 10.8 10.8 14.0299 10.8 18C10.8 21.5611 13.3995 24.5249 16.8 25.098V36H19.2V25.098C22.6006 24.5249 25.2 21.5611 25.2 18" fill="#FEFFFF"/>
</svg>
